<?xml version="1.0" encoding="UTF-8"?>
<svg width="239px" height="70px" viewBox="0 0 239 70" version="1.1" xmlns="http://www.w3.org/2000/svg" xmlns:xlink="http://www.w3.org/1999/xlink" xmlns:sketch="http://www.bohemiancoding.com/sketch/ns">
    <!-- Generator: Sketch 3.4.4 (17249) - http://www.bohemiancoding.com/sketch -->
    <title>Download_on_the_App_Store_Badge_RU_135x40</title>
    <desc>Created with Sketch.</desc>
    <defs></defs>
    <g id="Page-1" stroke="none" stroke-width="1" fill="none" fill-rule="evenodd" sketch:type="MSPage">
        <g id="Desktop-HD" sketch:type="MSArtboardGroup" transform="translate(-475.000000, -856.000000)">
            <g id="Download_on_the_App_Store_Badge_RU_135x40-+-ru_badge_web_generic" sketch:type="MSLayerGroup" transform="translate(475.000000, 839.000000)">
                <g id="Download_on_the_App_Store_Badge_RU_135x40" transform="translate(0.000000, 17.000000)" sketch:type="MSShapeGroup">
                    <g id="RU_Download_on_the">
                        <g id="Group">
                            <path d="M229.773594,70 L8.34580926,70 C3.74493704,70 0,66.276 0,61.71725 L0,8.2705 C0,3.71 3.74493704,0 8.34580926,0 L229.773594,0 C234.372702,0 238.25,3.71 238.25,8.2705 L238.25,61.71725 C238.25,66.276 234.372702,70 229.773594,70 L229.773594,70 L229.773594,70 Z" id="Shape" fill="#A6A6A6"></path>
                            <path d="M235.556,61.719 C235.556,65.422 232.5565,68.4215 228.8465,68.4215 L9.27575,68.4215 C5.5675,68.4215 2.5575,65.422 2.5575,61.719 L2.5575,8.26875 C2.5575,4.5675 5.5675,1.5575 9.27575,1.5575 L228.84475,1.5575 C232.5565,1.5575 235.55425,4.5675 235.55425,8.26875 L235.556,61.719 L235.556,61.719 L235.556,61.719 Z" id="Shape" fill="#000000"></path>
                            <g transform="translate(22.000000, 10.500000)" id="Shape" fill="#FFFFFF">
                                <path d="M31.724,24.122 C31.67325,18.48175 36.34225,15.73775 36.55575,15.61 C33.9115,11.75475 29.813,11.228 28.37275,11.186 C24.9305,10.82375 21.5915,13.24575 19.838,13.24575 C18.0495,13.24575 15.34925,11.221 12.439,11.2805 C8.694,11.33825 5.1905,13.5065 3.269,16.8735 C-0.6965,23.73875 2.261,33.8275 6.06025,39.37675 C7.96075,42.0945 10.1815,45.129 13.08825,45.02225 C15.932,44.905 16.99425,43.20925 20.426,43.20925 C23.82625,43.20925 24.82375,45.02225 27.78825,44.954 C30.84025,44.905 32.76175,42.224 34.59575,39.48175 C36.792,36.36675 37.674,33.299 37.709,33.1415 C37.63725,33.117 31.78175,30.88225 31.724,24.122 L31.724,24.122 Z"></path>
                                <path d="M26.124,7.5355 C27.6535,5.62275 28.7,3.0205 28.4095,0.37975 C26.19575,0.47775 23.42725,1.911 21.833,3.78175 C20.4225,5.43025 19.1625,8.13225 19.488,10.67325 C21.97475,10.85875 24.528,9.4185 26.124,7.5355 L26.124,7.5355 Z"></path>
                            </g>
                            <g transform="translate(74.500000, 31.500000)" id="Shape" fill="#FFFFFF">
                                <path d="M20.37875,23.632 L16.4045,23.632 L14.2275,16.79125 L6.6605,16.79125 L4.58675,23.632 L0.7175,23.632 L8.2145,0.343 L12.845,0.343 L20.37875,23.632 L20.37875,23.632 Z M13.57125,13.92125 L11.6025,7.84 C11.39425,7.21875 11.004,5.75575 10.42825,3.45275 L10.35825,3.45275 C10.129,4.44325 9.75975,5.90625 9.25225,7.84 L7.3185,13.92125 L13.57125,13.92125 L13.57125,13.92125 Z"></path>
                                <path d="M39.6585,15.029 C39.6585,17.885 38.88675,20.1425 37.34325,21.79975 C35.96075,23.275 34.244,24.01175 32.19475,24.01175 C29.98275,24.01175 28.39375,23.21725 27.426,21.62825 L27.356,21.62825 L27.356,30.4745 L23.625,30.4745 L23.625,12.36725 C23.625,10.57175 23.57775,8.729 23.48675,6.839 L26.768,6.839 L26.97625,9.50075 L27.04625,9.50075 C28.2905,7.49525 30.17875,6.49425 32.71275,6.49425 C34.69375,6.49425 36.3475,7.2765 37.6705,8.84275 C38.997,10.41075 39.6585,12.47225 39.6585,15.029 L39.6585,15.029 Z M35.8575,15.1655 C35.8575,13.531 35.49,12.1835 34.7515,11.123 C33.94475,10.017 32.8615,9.464 31.5035,9.464 C30.583,9.464 29.7465,9.772 28.99925,10.37925 C28.25025,10.99175 27.76025,11.7915 27.531,12.782 C27.4155,13.244 27.35775,13.622 27.35775,13.9195 L27.35775,16.7195 C27.35775,17.941 27.73225,18.97175 28.48125,19.8135 C29.23025,20.65525 30.20325,21.07525 31.40025,21.07525 C32.8055,21.07525 33.89925,20.53275 34.6815,19.45125 C35.4655,18.368 35.8575,16.94 35.8575,15.1655 L35.8575,15.1655 Z"></path>
                                <path d="M58.97325,15.029 C58.97325,17.885 58.2015,20.1425 56.65625,21.79975 C55.2755,23.275 53.55875,24.01175 51.5095,24.01175 C49.2975,24.01175 47.7085,23.21725 46.7425,21.62825 L46.6725,21.62825 L46.6725,30.4745 L42.9415,30.4745 L42.9415,12.36725 C42.9415,10.57175 42.89425,8.729 42.80325,6.839 L46.0845,6.839 L46.29275,9.50075 L46.36275,9.50075 C47.60525,7.49525 49.4935,6.49425 52.02925,6.49425 C54.0085,6.49425 55.66225,7.2765 56.98875,8.84275 C58.31,10.41075 58.97325,12.47225 58.97325,15.029 L58.97325,15.029 Z M55.17225,15.1655 C55.17225,13.531 54.803,12.1835 54.0645,11.123 C53.25775,10.017 52.178,9.464 50.81825,9.464 C49.896,9.464 49.06125,9.772 48.31225,10.37925 C47.56325,10.99175 47.075,11.7915 46.84575,12.782 C46.732,13.244 46.6725,13.622 46.6725,13.9195 L46.6725,16.7195 C46.6725,17.941 47.047,18.97175 47.7925,19.8135 C48.5415,20.6535 49.5145,21.07525 50.715,21.07525 C52.12025,21.07525 53.214,20.53275 53.99625,19.45125 C54.78025,18.368 55.17225,16.94 55.17225,15.1655 L55.17225,15.1655 Z"></path>
                                <path d="M80.56825,17.101 C80.56825,19.082 79.8805,20.69375 78.49975,21.938 C76.9825,23.29775 74.87025,23.97675 72.156,23.97675 C69.65,23.97675 67.641,23.49375 66.12025,22.526 L66.98475,19.41625 C68.62275,20.40675 70.42,20.90375 72.37825,20.90375 C73.7835,20.90375 74.87725,20.58525 75.663,19.95175 C76.44525,19.31825 76.8355,18.46775 76.8355,17.40725 C76.8355,16.46225 76.5135,15.666 75.86775,15.02025 C75.2255,14.3745 74.15275,13.77425 72.65475,13.2195 C68.57725,11.69875 66.54025,9.471 66.54025,6.5415 C66.54025,4.627 67.25425,3.05725 68.684,1.83575 C70.1085,0.6125 72.009,0.00175 74.3855,0.00175 C76.50475,0.00175 78.26525,0.371 79.6705,1.10775 L78.73775,4.14925 C77.42525,3.43525 75.94125,3.07825 74.2805,3.07825 C72.968,3.07825 71.9425,3.402 71.2075,4.046 C70.58625,4.62175 70.27475,5.3235 70.27475,6.15475 C70.27475,7.07525 70.63,7.8365 71.344,8.435 C71.96525,8.988 73.094,9.5865 74.732,10.23225 C76.73575,11.039 78.2075,11.98225 79.15425,13.06375 C80.0975,14.14175 80.56825,15.491 80.56825,17.101 L80.56825,17.101 Z"></path>
                                <path d="M92.904,9.639 L88.7915,9.639 L88.7915,17.79225 C88.7915,19.866 89.516,20.902 90.9685,20.902 C91.63525,20.902 92.18825,20.84425 92.62575,20.72875 L92.729,23.562 C91.994,23.83675 91.02625,23.975 89.8275,23.975 C88.354,23.975 87.2025,23.52525 86.37125,22.6275 C85.5435,21.728 85.127,20.2195 85.127,18.10025 L85.127,9.6355 L82.677,9.6355 L82.677,6.8355 L85.127,6.8355 L85.127,3.76075 L88.7915,2.65475 L88.7915,6.8355 L92.904,6.8355 L92.904,9.639 L92.904,9.639 Z"></path>
                                <path d="M111.45925,15.09725 C111.45925,17.6785 110.72075,19.79775 109.24725,21.455 C107.702,23.16125 105.651,24.01175 103.09425,24.01175 C100.63025,24.01175 98.6685,23.1945 97.2055,21.56 C95.7425,19.9255 95.011,17.86225 95.011,15.3755 C95.011,12.77325 95.7635,10.64175 97.27375,8.9845 C98.7805,7.3255 100.814,6.496 103.37075,6.496 C105.83475,6.496 107.8175,7.31325 109.31375,8.9495 C110.74525,10.53675 111.45925,12.586 111.45925,15.09725 L111.45925,15.09725 Z M107.58825,15.218 C107.58825,13.66925 107.2575,12.341 106.58725,11.23325 C105.805,9.89275 104.68675,9.22425 103.23775,9.22425 C101.738,9.22425 100.59875,9.8945 99.8165,11.23325 C99.14625,12.34275 98.8155,13.692 98.8155,15.288 C98.8155,16.83675 99.14625,18.165 99.8165,19.271 C100.62325,20.6115 101.75025,21.28 103.2045,21.28 C104.629,21.28 105.74725,20.5975 106.554,19.236 C107.24175,18.10725 107.58825,16.765 107.58825,15.218 L107.58825,15.218 Z"></path>
                                <path d="M123.58675,10.12025 C123.2175,10.052 122.82375,10.017 122.41075,10.017 C121.09825,10.017 120.08325,10.51225 119.36925,11.5045 C118.748,12.3795 118.4365,13.4855 118.4365,14.82075 L118.4365,23.632 L114.70725,23.632 L114.74225,12.1275 C114.74225,10.192 114.695,8.42975 114.60225,6.84075 L117.852,6.84075 L117.9885,10.05375 L118.09175,10.05375 C118.4855,8.9495 119.10675,8.0605 119.95725,7.39375 C120.7885,6.7935 121.68625,6.49425 122.654,6.49425 C122.99875,6.49425 123.31025,6.51875 123.58675,6.5625 L123.58675,10.12025 L123.58675,10.12025 Z"></path>
                                <path d="M140.273,14.441 C140.273,15.1095 140.22925,15.673 140.1365,16.13325 L128.9435,16.13325 C128.98725,17.79225 129.528,19.061 130.5675,19.936 C131.51075,20.71825 132.7305,21.11025 134.2285,21.11025 C135.88575,21.11025 137.39775,20.846 138.7575,20.31575 L139.342,22.90575 C137.753,23.59875 135.877,23.9435 133.71225,23.9435 C131.10825,23.9435 129.06425,23.177 127.57675,21.64575 C126.09275,20.1145 125.349,18.05825 125.349,15.47875 C125.349,12.9465 126.04025,10.83775 127.4245,9.156 C128.8735,7.3605 130.83175,6.46275 133.29575,6.46275 C135.716,6.46275 137.54825,7.3605 138.7925,9.156 C139.77775,10.58225 140.273,12.34625 140.273,14.441 L140.273,14.441 Z M136.71525,13.47325 C136.73975,12.36725 136.4965,11.41175 135.99075,10.605 C135.345,9.56725 134.35275,9.04925 133.0175,9.04925 C131.79775,9.04925 130.8055,9.555 130.04775,10.57 C129.4265,11.37675 129.05725,12.3445 128.9435,13.4715 L136.71525,13.4715 L136.71525,13.47325 Z"></path>
                            </g>
                            <g transform="translate(76.250000, 10.500000)" id="Shape" fill="#FFFFFF">
                                <path d="M0.742,2.22775 C1.13925,1.98975 1.58725,1.79025 2.09125,1.62575 C2.5935,1.46125 3.185,1.379 3.86575,1.379 C4.963,1.379 5.8275,1.63975 6.461,2.1595 C7.0945,2.67925 7.41125,3.381 7.41125,4.26475 C7.41125,4.9665 7.1995,5.5545 6.776,6.0305 C6.3525,6.5065 5.81,6.82325 5.15375,6.98075 L5.15375,7.0315 C5.516,7.08925 5.859,7.18725 6.181,7.329 C6.50475,7.47075 6.78825,7.65975 7.02975,7.89775 C7.273,8.13575 7.4655,8.41225 7.60725,8.73075 C7.74725,9.0475 7.819,9.3975 7.819,9.78425 C7.819,10.41775 7.69125,10.94975 7.43575,11.38025 C7.18025,11.81075 6.84775,12.16075 6.43475,12.43375 C6.0235,12.705 5.5615,12.901 5.05225,13.01825 C4.543,13.1355 4.03375,13.19675 3.5245,13.19675 C2.98025,13.19675 2.443,13.139 1.911,13.027 C1.379,12.915 0.88725,12.72775 0.434,12.467 L0.8925,11.05825 C1.1865,11.20525 1.56625,11.347 2.03,11.4835 C2.49375,11.62 2.96275,11.6865 3.43875,11.6865 C4.21925,11.6865 4.823,11.5115 5.2465,11.1615 C5.67,10.80975 5.8835,10.34075 5.8835,9.75275 C5.8835,9.3555 5.79775,9.03175 5.628,8.77625 C5.4565,8.52075 5.236,8.32125 4.96475,8.1725 C4.6935,8.0255 4.39075,7.924 4.0565,7.868 C3.72225,7.812 3.3915,7.78225 3.06425,7.78225 L2.2995,7.78225 L2.2995,6.3875 L3.06425,6.3875 C3.41425,6.3875 3.73975,6.34375 4.04075,6.251 C4.34,6.16175 4.60075,6.034 4.82125,5.8695 C5.04175,5.705 5.215,5.509 5.33925,5.28325 C5.46175,5.0575 5.52475,4.802 5.52475,4.5185 C5.52475,4.00925 5.34275,3.61025 4.9805,3.3215 C4.61825,3.03275 4.13175,2.8875 3.521,2.8875 C3.10275,2.8875 2.68275,2.95575 2.2645,3.0905 C1.84625,3.227 1.47175,3.374 1.14275,3.5315 L0.742,2.22775 L0.742,2.22775 Z"></path>
                                <path d="M15.32125,13.00775 L15.1865,12.0575 L15.13575,12.0575 C14.58275,12.81525 13.7795,13.195 12.726,13.195 C12.3515,13.195 12.01375,13.132 11.7075,13.00775 C11.40125,12.8835 11.13525,12.71375 10.9095,12.4985 C10.682,12.28325 10.50875,12.0295 10.38275,11.73375 C10.2585,11.43975 10.19725,11.116 10.19725,10.766 C10.19725,9.737 10.6155,8.9635 11.45375,8.449 C12.292,7.9345 13.4785,7.67725 15.0185,7.67725 L15.0185,7.525 C15.0185,6.43825 14.448,5.89575 13.307,5.89575 C12.49325,5.89575 11.77575,6.1005 11.15625,6.5065 L10.7835,5.3025 C11.54125,4.82825 12.4845,4.59025 13.61325,4.59025 C15.771,4.59025 16.85075,5.72775 16.85075,8.00275 L16.85075,11.04075 C16.85075,11.8895 16.891,12.54575 16.96975,13.0095 L15.32125,13.0095 L15.32125,13.00775 Z M15.0675,8.9005 C14.04375,8.9005 13.28075,9.03 12.78025,9.29075 C12.27975,9.5515 12.0295,9.97675 12.0295,10.56475 C12.0295,10.99525 12.14675,11.31725 12.383,11.5325 C12.61925,11.74775 12.9185,11.8545 13.279,11.8545 C13.51525,11.8545 13.73925,11.8125 13.9545,11.72675 C14.168,11.64275 14.35525,11.5255 14.518,11.3785 C14.6825,11.2315 14.81375,11.053 14.917,10.843 C15.0185,10.633 15.0675,10.41075 15.0675,10.17275 L15.0675,8.9005 L15.0675,8.9005 Z"></path>
                                <path d="M25.69525,4.75825 L25.69525,6.2685 L22.26525,6.2685 L22.26525,13.00775 L20.433,13.00775 L20.433,4.75825 L25.69525,4.75825 L25.69525,4.75825 Z"></path>
                                <path d="M36.18475,8.7815 C36.18475,9.43775 36.09375,10.038 35.9135,10.5805 C35.7315,11.12475 35.48125,11.5885 35.1575,11.97175 C34.8355,12.35675 34.4505,12.65775 34.00425,12.87125 C33.55625,13.0865 33.06275,13.195 32.5185,13.195 C31.43175,13.195 30.65125,12.80475 30.17525,12.02425 L30.14025,12.02425 L30.14025,16.3695 L28.30625,16.3695 L28.30625,7.47425 C28.30625,7.03325 28.301,6.58875 28.28875,6.14075 C28.27825,5.6945 28.26075,5.2325 28.23975,4.7565 L29.8515,4.7565 L29.95475,6.06375 L29.98975,6.06375 C30.6005,5.08025 31.528,4.58675 32.774,4.58675 C33.25875,4.58675 33.71025,4.68825 34.12325,4.89125 C34.53625,5.096 34.895,5.38125 35.20125,5.74875 C35.5075,6.11625 35.74725,6.55725 35.92225,7.0735 C36.09725,7.58975 36.18475,8.1585 36.18475,8.7815 L36.18475,8.7815 Z M34.31925,8.84975 C34.31925,8.442 34.27025,8.06575 34.174,7.721 C34.07775,7.37625 33.936,7.08225 33.7505,6.839 C33.565,6.59575 33.3375,6.40325 33.0715,6.2615 C32.8055,6.11975 32.508,6.04975 32.179,6.04975 C31.92,6.04975 31.6645,6.1075 31.41425,6.2195 C31.164,6.3315 30.947,6.4855 30.7615,6.678 C30.57425,6.8705 30.4255,7.10325 30.31175,7.3745 C30.198,7.64575 30.14025,7.9345 30.14025,8.24075 L30.14025,9.61625 C30.14025,9.92075 30.1875,10.20425 30.2855,10.465 C30.38175,10.72575 30.5165,10.9515 30.6915,11.144 C30.8665,11.3365 31.0765,11.487 31.31975,11.59375 C31.563,11.70225 31.83075,11.75475 32.12475,11.75475 C32.816,11.75475 33.35325,11.49225 33.73825,10.9655 C34.12325,10.43875 34.31925,9.73175 34.31925,8.84975 L34.31925,8.84975 Z"></path>
                                <path d="M46.03375,4.75825 L43.94425,10.479 C43.44725,11.837 42.9625,12.94825 42.4935,13.8145 C42.02275,14.68075 41.57475,15.31075 41.14425,15.708 C40.51075,16.27325 39.837,16.61975 39.123,16.74225 L38.682,15.19875 C39.15625,15.0745 39.6095,14.83125 40.04,14.469 C40.46875,14.10675 40.8135,13.65525 41.076,13.111 C41.167,12.93075 41.21075,12.8065 41.21075,12.73825 C41.21075,12.67 41.17575,12.5405 41.10925,12.348 L38.12025,4.76 L40.13975,4.76 L41.7025,9.36075 C41.783,9.576 41.86175,9.81925 41.9405,10.0905 C42.021,10.36175 42.105,10.66275 42.196,10.99 L42.231,10.99 C42.287,10.808 42.35,10.5805 42.4165,10.30225 C42.48475,10.02575 42.57575,9.7055 42.68775,9.34325 L44.08075,4.76 L46.03375,4.76 L46.03375,4.75825 Z"></path>
                                <path d="M49.20825,8.1865 L50.05525,8.1865 C50.6765,8.1865 51.1595,8.0745 51.49725,7.847 C51.835,7.6195 52.0065,7.343 52.0065,7.014 C52.0065,6.6745 51.863,6.40325 51.5725,6.20025 C51.2855,5.99725 50.88475,5.894 50.3755,5.894 C50.0465,5.894 49.71575,5.94825 49.385,6.055 C49.05075,6.1635 48.74275,6.2965 48.45925,6.454 L47.985,5.2675 C48.45925,5.0085 48.93175,4.83 49.40425,4.73375 C49.87325,4.6375 50.344,4.5885 50.82,4.5885 C51.19625,4.5885 51.5725,4.62525 51.9505,4.69875 C52.32675,4.77225 52.6645,4.8965 52.9585,5.0715 C53.2525,5.2465 53.49575,5.47575 53.6795,5.75925 C53.86675,6.04275 53.9595,6.39275 53.9595,6.81275 C53.9595,7.0735 53.90875,7.30275 53.8055,7.5005 C53.70575,7.69825 53.56925,7.87325 53.3995,8.0255 C53.2315,8.17775 53.04075,8.30375 52.8325,8.39825 C52.62425,8.4945 52.409,8.56625 52.19725,8.61175 L52.19725,8.6625 C52.46675,8.6975 52.731,8.76575 52.9865,8.86725 C53.24025,8.96875 53.46775,9.10175 53.67425,9.26625 C53.8755,9.43075 54.04,9.6285 54.166,9.8595 C54.2885,10.09225 54.34975,10.35475 54.34975,10.64875 C54.34975,11.13525 54.23425,11.543 53.9945,11.87025 C53.75825,12.19925 53.45375,12.45825 53.0845,12.65075 C52.71875,12.84325 52.31275,12.9815 51.87175,13.06725 C51.43075,13.15125 51.00025,13.195 50.58375,13.195 C50.0745,13.195 49.56875,13.14075 49.0735,13.034 C48.57475,12.9255 48.12675,12.75925 47.7295,12.5335 L48.20725,11.32775 C48.50125,11.487 48.8355,11.62 49.21525,11.72675 C49.595,11.8335 49.98175,11.88775 50.37725,11.88775 C50.9985,11.88775 51.478,11.767 51.81225,11.52375 C52.143,11.2805 52.311,10.97775 52.311,10.6155 C52.311,10.3775 52.25675,10.178 52.143,10.0135 C52.02925,9.849 51.87,9.716 51.66875,9.6145 C51.464,9.513 51.22775,9.44125 50.95475,9.40275 C50.68525,9.3625 50.38775,9.34325 50.07275,9.34325 L49.20825,9.34325 L49.20825,8.1865 L49.20825,8.1865 Z"></path>
                                <path d="M59.00125,4.75825 L59.00125,7.67725 C59.00125,8.34575 58.99075,8.946 58.96625,9.47625 C58.94175,10.00825 58.9155,10.56825 58.8805,11.15625 L58.9155,11.1895 C59.13075,10.759 59.3425,10.339 59.55075,9.92425 C59.7625,9.51125 59.97425,9.0895 60.1895,8.659 L62.2265,4.75475 L64.60125,4.75475 L64.60125,13.00425 L62.86875,13.00425 L62.86875,10.08525 C62.86875,9.4745 62.88625,8.86375 62.9125,8.253 C62.9405,7.6405 62.97025,7.0245 63.00525,6.4015 L62.9195,6.4015 C62.72875,6.91075 62.53625,7.35175 62.342,7.72625 C62.15125,8.099 61.95875,8.484 61.768,8.88125 C61.41625,9.56025 61.068,10.23925 60.7215,10.91825 C60.37675,11.59725 60.011,12.29375 59.62775,13.006 L57.253,13.006 L57.253,4.75825 L59.00125,4.75825 L59.00125,4.75825 Z"></path>
                                <path d="M74.27875,4.75825 L74.27875,6.2685 L71.7675,6.2685 L71.7675,13.00775 L69.965,13.00775 L69.965,6.2685 L67.4695,6.2685 L67.4695,4.75825 L74.27875,4.75825 L74.27875,4.75825 Z"></path>
                                <path d="M83.63075,8.49275 C83.63075,8.65025 83.62375,8.80075 83.61325,8.9425 C83.60275,9.08425 83.58525,9.212 83.5625,9.324 L78.06225,9.324 C78.08675,10.1045 78.33175,10.70825 78.80075,11.13175 C79.26975,11.55525 79.891,11.76875 80.65925,11.76875 C81.4625,11.76875 82.2045,11.63925 82.8835,11.3785 L83.1705,12.6525 C82.38825,12.992 81.46775,13.16175 80.402,13.16175 C79.75975,13.16175 79.18225,13.062 78.673,12.86425 C78.16375,12.6665 77.73325,12.3865 77.3815,12.02425 C77.03325,11.662 76.762,11.22625 76.57475,10.717 C76.391,10.20775 76.29825,9.63725 76.29825,9.00375 C76.29825,8.37025 76.391,7.784 76.57475,7.24675 C76.762,6.7095 77.02625,6.24225 77.364,5.84675 C77.70525,5.4495 78.1165,5.13975 78.59425,4.91225 C79.0755,4.6865 79.61275,4.57275 80.20075,4.57275 C80.7205,4.57275 81.19125,4.6655 81.62,4.85275 C82.0435,5.03825 82.40575,5.30425 82.70325,5.65075 C83.00425,5.9955 83.2335,6.41025 83.391,6.88975 C83.552,7.36925 83.63075,7.90475 83.63075,8.49275 L83.63075,8.49275 Z M81.88075,8.0185 C81.88075,7.37275 81.72675,6.8495 81.41525,6.44875 C81.10375,6.048 80.654,5.845 80.066,5.845 C79.53225,5.845 79.0825,6.048 78.70975,6.45575 C78.337,6.8635 78.12175,7.38325 78.064,8.0185 L81.88075,8.0185 L81.88075,8.0185 Z"></path>
                                <path d="M91.0175,4.8265 C91.3465,4.7705 91.763,4.725 92.27225,4.69 C92.7815,4.655 93.30125,4.63925 93.835,4.63925 C94.17275,4.63925 94.556,4.66025 94.9795,4.69875 C95.403,4.73725 95.81075,4.82825 96.19225,4.97 C96.579,5.11175 96.89925,5.3235 97.16,5.607 C97.42075,5.8905 97.55375,6.27375 97.55375,6.76025 C97.55375,7.0105 97.5065,7.2345 97.41725,7.4305 C97.3245,7.62825 97.2055,7.8015 97.0515,7.9485 C96.8975,8.0955 96.7225,8.218 96.52475,8.3125 C96.327,8.40875 96.12225,8.4805 95.90525,8.52425 L95.92275,8.575 C96.52125,8.6765 97.0095,8.89175 97.38225,9.22075 C97.755,9.54975 97.94225,10.00125 97.94225,10.57875 C97.94225,11.15625 97.78125,11.61475 97.468,11.95425 C97.1495,12.29375 96.761,12.54925 96.2955,12.719 C95.83,12.88875 95.34175,12.99725 94.8255,13.04275 C94.31275,13.0865 93.85075,13.111 93.44475,13.111 C92.98975,13.111 92.54525,13.1005 92.11125,13.076 C91.67375,13.05325 91.3115,13.0305 91.0175,13.00775 L91.0175,4.8265 L91.0175,4.8265 Z M92.7815,8.12 L93.71425,8.12 C93.99775,8.12 94.26725,8.10075 94.521,8.0605 C94.7765,8.022 94.99875,7.959 95.19125,7.875 C95.3855,7.78925 95.5325,7.67725 95.64275,7.5355 C95.7495,7.39375 95.80375,7.22225 95.80375,7.0175 C95.80375,6.64475 95.64975,6.37 95.33475,6.195 C95.02325,6.02 94.535,5.9325 93.86825,5.9325 C93.6775,5.9325 93.5095,5.93775 93.366,5.95 C93.226,5.9605 93.03175,5.978 92.7815,6.00075 L92.7815,8.12 L92.7815,8.12 Z M92.7815,11.76875 C93.00725,11.7915 93.198,11.80725 93.3485,11.8195 C93.5025,11.83175 93.67925,11.837 93.88575,11.837 C94.136,11.837 94.388,11.82125 94.64875,11.78625 C94.90775,11.753 95.1475,11.68825 95.36275,11.592 C95.578,11.4975 95.7495,11.368 95.879,11.2035 C96.0085,11.04075 96.07675,10.82375 96.07675,10.55425 C96.07675,10.08175 95.865,9.75625 95.4485,9.576 C95.0285,9.39575 94.465,9.3065 93.74925,9.3065 L92.7815,9.3065 L92.7815,11.76875 L92.7815,11.76875 Z"></path>
                            </g>
                        </g>
                    </g>
                </g>
            </g>
        </g>
    </g>
</svg>